<?xml version="1.0" encoding="utf-8"?>
<!-- Generator: Adobe Illustrator 24.1.2, SVG Export Plug-In . SVG Version: 6.00 Build 0)  -->
<svg version="1.1" id="Layer_1" xmlns="http://www.w3.org/2000/svg" xmlns:xlink="http://www.w3.org/1999/xlink" x="0px" y="0px"
	 viewBox="0 0 640 96" style="enable-background:new 0 0 640 96;" xml:space="preserve" preserveAspectRatio="none">
<style type="text/css">
	.st0{opacity:0.1;}
	.st1{fill:#FFFFFF;}
</style>
<g>
	<g class="st0">
		<path class="st1" d="M0,0v48v48h0.3C73.8,66.8,189.7,48,320,48C189.7,48,73.8,29.2,0.3,0H0z"/>
		<path class="st1" d="M639.7,0C566.2,29.2,450.3,48,320,48c130.3,0,246.2,18.8,319.7,48h0.3V48V0H639.7z"/>
	</g>
	<g class="st0">
		<path class="st1" d="M0,16v32v32h0.3C73.8,60.6,189.7,48,320,48C189.7,48,73.8,35.5,0.3,16H0z"/>
		<path class="st1" d="M639.7,16C566.2,35.5,450.3,48,320,48c130.3,0,246.2,12.6,319.7,32h0.3V48V16H639.7z"/>
	</g>
	<g class="st0">
		<path class="st1" d="M0,32v16v16h0.3C73.8,54.3,189.7,48,320,48C189.7,48,73.8,41.7,0.3,32H0z"/>
		<path class="st1" d="M639.7,32C566.2,41.7,450.3,48,320,48c130.3,0,246.2,6.3,319.7,16h0.3V48V32H639.7z"/>
	</g>
</g>
</svg>
