<?xml version="1.0" encoding="utf-8"?>
<!-- Generator: Adobe Illustrator 24.1.2, SVG Export Plug-In . SVG Version: 6.00 Build 0)  -->
<svg version="1.1" id="Layer_1" xmlns="http://www.w3.org/2000/svg" xmlns:xlink="http://www.w3.org/1999/xlink" x="0px" y="0px"
	 viewBox="0 0 96 640" style="enable-background:new 0 0 96 640;" xml:space="preserve" preserveAspectRatio="none">
<style type="text/css">
	.st0{opacity:0.1;}
	.st1{fill:#FFFFFF;}
</style>
<g>
	<g class="st0">
		<path class="st1" d="M96,0H48H0v0.3C29.2,73.8,48,189.7,48,320C48,189.7,66.8,73.8,96,0.3V0z"/>
		<path class="st1" d="M96,639.7C66.8,566.2,48,450.3,48,320c0,130.3-18.8,246.2-48,319.7v0.3h48h48V639.7z"/>
	</g>
	<g class="st0">
		<path class="st1" d="M80,0H48H16v0.3C35.4,73.8,48,189.7,48,320C48,189.7,60.5,73.8,80,0.3V0z"/>
		<path class="st1" d="M80,639.7C60.5,566.2,48,450.3,48,320c0,130.3-12.6,246.2-32,319.7v0.3h32h32V639.7z"/>
	</g>
	<g class="st0">
		<path class="st1" d="M64,0H48H32v0.3C41.7,73.8,48,189.7,48,320C48,189.7,54.3,73.8,64,0.3V0z"/>
		<path class="st1" d="M64,639.7C54.3,566.2,48,450.3,48,320c0,130.3-6.3,246.2-16,319.7v0.3h16h16V639.7z"/>
	</g>
</g>
</svg>
