<?xml version="1.0" encoding="utf-8"?>
<!-- Generator: Adobe Illustrator 24.1.2, SVG Export Plug-In . SVG Version: 6.00 Build 0)  -->
<svg version="1.1" id="Layer_1" focusable="false" xmlns="http://www.w3.org/2000/svg" xmlns:xlink="http://www.w3.org/1999/xlink"
	 x="0px" y="0px" viewBox="0 0 136 96" style="enable-background:new 0 0 136 96;" xml:space="preserve">
<style type="text/css">
	.st0{fill:#FFE47D;}
	.st1{opacity:0.4;fill:#64A9C3;enable-background:new    ;}
	.st2{fill:#64A9C3;}
</style>
<g>
	<path class="st0" d="M113.7,41.7c0.9-2.3,1.3-4.8,1.3-7.4c0-11.4-9-20.6-20.2-20.6c-4.1,0-8,1.3-11.2,3.5C77.9,6.9,67,0,54.6,0
		C36,0,20.9,15.3,20.9,34.3c0,0.6,0,1.2,0,1.7C9.2,40.2,0.8,51.7,0.8,65.1C0.8,82.2,14.3,96,31,96h77.3c14.9,0,26.9-12.3,26.9-27.4
		C135.2,55.3,126,44.2,113.7,41.7z"/>
	<g>
		<path class="st1" d="M86.4,38c-4.9-4.2-12.2-3.5-16.6,1.2L68,41l-1.8-1.8c-4.5-4.7-11.8-5.5-16.6-1.2c-5.6,4.9-5.9,13.6-0.9,18.9
			L66,75c1.1,1.1,2.8,1.2,3.9,0.1c0,0,0.1-0.1,0.1-0.1l17.3-18.2C92.3,51.6,92,42.8,86.4,38L86.4,38z M81.7,54.8L68.9,67.9
			c-0.5,0.5-1.4,0.5-1.9,0c0,0,0,0,0,0L54.5,55.1c-2.5-2.6-3-6.8-0.7-9.7c2.4-3,6.7-3.5,9.6-1c0.2,0.2,0.4,0.3,0.6,0.5L68,49
			l3.8-3.9c2.5-2.6,6.7-3.1,9.4-0.8c2.9,2.5,3.4,6.9,1,9.9C82,54.5,81.8,54.6,81.7,54.8L81.7,54.8z"/>
		<path class="st2" d="M67,67.9L54.5,55.1c-2.5-2.6-3-6.8-0.7-9.7c2.4-3,6.7-3.5,9.6-1c0.2,0.2,0.4,0.3,0.6,0.5L68,49l3.8-3.9
			c2.5-2.6,6.7-3.1,9.4-0.8c2.9,2.5,3.4,6.9,1,9.9c-0.1,0.2-0.3,0.3-0.4,0.5L68.9,67.9C68.4,68.4,67.5,68.4,67,67.9
			C67,67.9,67,67.9,67,67.9z"/>
	</g>
</g>
</svg>
