<?xml version="1.0" encoding="utf-8"?>
<!-- Generator: Adobe Illustrator 24.2.1, SVG Export Plug-In . SVG Version: 6.00 Build 0)  -->
<svg version="1.1" id="Layer_1" xmlns="http://www.w3.org/2000/svg" xmlns:xlink="http://www.w3.org/1999/xlink" x="0px" y="0px"
	 viewBox="0 0 32 32" style="enable-background:new 0 0 32 32;" xml:space="preserve">
<style type="text/css">
	.st0{fill:#41B3E0;}
	.st1{opacity:0.4;fill:#FFFFFF;enable-background:new    ;}
	.st2{fill:#FFFFFF;}
</style>
<circle class="st0" cx="16" cy="16" r="16"/>
<path class="st1" d="M25.5,6.5c-0.8-0.8-1.9-1.1-3.1-1.1c-1.8,0-4.1,0.8-6.4,2.1c-1,0.6-1.9,1.2-2.8,2c-1.2,1-2.4,2.1-3.8,3.8
	c0.5,1,1.1,1.9,1.7,2.8c1.4-1.9,3-3.5,4.9-4.9c0.9-0.6,1.8-1.2,2.8-1.7c3.3-1.6,4.5-0.9,4.6-0.8c0.5,0.5,0.4,2.2-0.8,4.6
	c0.7,0.9,1.4,1.8,1.9,2.8C26.9,12.1,27.4,8.3,25.5,6.5z M16,20.9c-0.9,0.6-1.8,1.2-2.8,1.7c-3.3,1.6-4.5,0.9-4.6,0.8
	c-0.5-0.5-0.4-2.2,0.8-4.6C8.7,17.9,8.1,17,7.5,16c-2.3,3.9-2.9,7.7-1,9.5c0.8,0.8,1.9,1.1,3.1,1.1c1.8,0,4.1-0.8,6.4-2.1
	c1-0.6,1.9-1.2,2.8-2c1.2-1,2.4-2.1,3.8-3.8c-0.5-1-1.1-1.9-1.7-2.8C19.5,17.9,17.9,19.5,16,20.9z"/>
<path class="st2" d="M11.1,16c-0.6-0.9-1.2-1.8-1.7-2.8c-1.2-2.4-1.3-4.2-0.8-4.6c0.1-0.1,1.3-0.8,4.6,0.8c0.9-0.7,1.8-1.4,2.8-2
	c-2.3-1.4-4.6-2.1-6.4-2.1c-1.3,0-2.4,0.4-3.1,1.1c-1.9,1.9-1.3,5.6,1,9.5c0.6,1,1.2,1.9,1.9,2.8c1.4,1.7,2.6,2.8,3.8,3.8
	c1-0.5,1.9-1,2.8-1.7C14.1,19.5,12.5,17.9,11.1,16z M24.5,16c-0.6-1-1.2-1.9-1.9-2.8c-1.4-1.7-2.6-2.8-3.8-3.8c-1,0.5-1.9,1-2.8,1.7
	c1.9,1.4,3.5,3,4.9,4.9c0.6,0.9,1.2,1.8,1.7,2.8c1.2,2.4,1.3,4.2,0.8,4.6c-0.1,0.1-1.3,0.8-4.6-0.8c-0.9,0.7-1.8,1.4-2.8,2
	c2.3,1.4,4.6,2.1,6.4,2.1c1.3,0,2.4-0.4,3.1-1.1C27.4,23.7,26.9,19.9,24.5,16z"/>
<path class="st2" d="M13.8,16.1c-0.6-0.6-0.5-1.6,0.1-2.1c0.5-0.5,1.4-0.4,1.9,0.1l0.2,0.2l0.2-0.2c0.5-0.5,1.3-0.6,1.9-0.1
	c0.6,0.5,0.7,1.5,0.1,2.1l-1.9,2c-0.1,0.1-0.3,0.1-0.4,0c0,0,0,0,0,0L13.8,16.1z"/>
</svg>
