<?xml version="1.0" encoding="utf-8"?>
<!-- Generator: Adobe Illustrator 24.2.1, SVG Export Plug-In . SVG Version: 6.00 Build 0)  -->
<svg version="1.1" id="Layer_1" xmlns="http://www.w3.org/2000/svg" xmlns:xlink="http://www.w3.org/1999/xlink" x="0px" y="0px"
	 viewBox="0 0 32 32" style="enable-background:new 0 0 32 32;" xml:space="preserve">
<style type="text/css">
	.st0{fill:#64AAC3;}
	.st1{opacity:0.4;fill:#FFFFFF;enable-background:new    ;}
	.st2{fill:#FFFFFF;}
</style>
<circle class="st0" cx="16" cy="16" r="16"/>
<path class="st1" d="M26,9.5c-0.6,0-1.1,0.5-1.1,1.1v4.9l-3,3.6c-0.2,0.2-0.5,0.3-0.8,0.1c0,0,0,0,0,0l-0.4-0.4
	c-0.2-0.2-0.2-0.5-0.1-0.7l1.3-1.7c0.4-0.5,0.3-1.1-0.2-1.5s-1.1-0.3-1.5,0.2l-1.9,2.6c-0.6,0.7-0.9,1.6-0.9,2.6v3.7
	c0,0.3,0.2,0.5,0.5,0.5h4.4c0.2,0,0.4-0.2,0.5-0.4c0.1-0.3,0.2-0.5,0.3-0.7l3.5-4.5c0.2-0.3,0.4-0.6,0.3-1v-7.3
	C27.1,10,26.6,9.5,26,9.5z M12.6,15.1c-0.4-0.5-1-0.6-1.5-0.2s-0.6,1-0.2,1.5l1.3,1.7c0.2,0.2,0.1,0.5-0.1,0.7l-0.4,0.4
	c-0.2,0.2-0.5,0.2-0.7,0c0,0,0,0,0,0l-3-3.6v-4.9c0-0.6-0.5-1.1-1.1-1.1S5.8,10,5.8,10.6v7.3c0,0.4,0.1,0.7,0.3,1l3.5,4.5
	c0.2,0.2,0.3,0.5,0.3,0.7c0.1,0.2,0.3,0.4,0.5,0.4h4.4c0.3,0,0.5-0.2,0.5-0.5v-3.7c0-0.9-0.3-1.8-0.9-2.6L12.6,15.1z"/>
<path class="st2" d="M12.4,12c-1.1-1.1-1-2.9,0.2-4c1-0.9,2.6-0.7,3.5,0.3l0.4,0.4l0.4-0.4c0.9-1,2.5-1.1,3.5-0.3
	c1.2,1,1.2,2.9,0.2,4l-3.6,3.8c-0.2,0.2-0.6,0.2-0.8,0c0,0,0,0,0,0L12.4,12z"/>
</svg>
