<?xml version="1.0" encoding="utf-8"?>
<!-- Generator: Adobe Illustrator 24.2.1, SVG Export Plug-In . SVG Version: 6.00 Build 0)  -->
<svg version="1.1" id="Layer_1" xmlns="http://www.w3.org/2000/svg" xmlns:xlink="http://www.w3.org/1999/xlink" x="0px" y="0px"
	 viewBox="0 0 32 32" style="enable-background:new 0 0 32 32;" xml:space="preserve">
<style type="text/css">
	.st0{fill:#F2985C;}
	.st1{opacity:0.4;fill:#FFFFFF;enable-background:new    ;}
	.st2{fill:#FFFFFF;}
</style>
<circle class="st0" cx="16" cy="16" r="16"/>
<g>
	<path class="st1" d="M19.9,14.2c-0.8,0.5-1.6,1-2.2,1.7C17,16.4,16.5,17,16,17.7c-0.5-0.7-1-1.3-1.7-1.9c-0.7-0.6-1.4-1.2-2.2-1.6
		c0.6-2.6,1.9-4.9,3.6-6.4c0.2-0.1,0.4-0.1,0.6,0C17.9,9.3,19.3,11.6,19.9,14.2L19.9,14.2z"/>
	<path class="st2" d="M26.7,13.9c0,1-0.3,4.7-3.3,7.4c-3.1,3-6.2,3-7.4,3c-1.2,0-4.3,0-7.4-3c-3-2.7-3.3-6.3-3.3-7.4
		c0-0.2,0.1-0.3,0.3-0.3c0,0,0,0,0,0c1.1,0,5,0.2,7.9,3.1c1.2,1.1,2,2.3,2.5,3.5c0.5-1.2,1.2-2.4,2.5-3.5c2.9-2.8,6.8-3.1,7.9-3.1
		C26.5,13.6,26.7,13.8,26.7,13.9C26.7,13.9,26.7,13.9,26.7,13.9L26.7,13.9z"/>
</g>
</svg>
