<?xml version="1.0" encoding="utf-8"?>
<!-- Generator: Adobe Illustrator 24.2.1, SVG Export Plug-In . SVG Version: 6.00 Build 0)  -->
<svg version="1.1" id="Layer_1" xmlns="http://www.w3.org/2000/svg" xmlns:xlink="http://www.w3.org/1999/xlink" x="0px" y="0px"
	 viewBox="0 0 32 32" style="enable-background:new 0 0 32 32;" xml:space="preserve">
<style type="text/css">
	.st0{fill:#70A94F;}
	.st1{opacity:0.4;fill:#FFFFFF;enable-background:new    ;}
	.st2{fill:#FFFFFF;}
</style>
<circle class="st0" cx="16" cy="16" r="16"/>
<g>
	<path class="st1" d="M26.3,18.8h-2.1c-0.2,0-0.4-0.1-0.5-0.2l-1.4-1.4c-0.2-0.2-0.2-0.5,0-0.7l0.5-0.5v-0.4c0-0.1-0.1-0.3-0.1-0.3
		l-0.4-0.4c-0.1-0.1-0.2-0.1-0.3-0.1h-0.7c-0.3,0-0.5-0.2-0.5-0.5c0-0.1,0.1-0.3,0.1-0.3l0.4-0.4c0.1-0.1,0.2-0.1,0.3-0.1h1.4
		c0.3,0,0.5-0.2,0.5-0.5v-0.4c0-0.3-0.2-0.5-0.5-0.5h-1.6c-0.4,0-0.7,0.3-0.7,0.7v0.2c0,0.3-0.2,0.6-0.5,0.7L19,13.9
		c-0.1,0-0.2,0.2-0.2,0.3v0.1c0,0.2-0.2,0.3-0.3,0.3h-0.7c-0.2,0-0.3-0.2-0.3-0.3S17.2,14,17,14h-0.1c-0.1,0-0.2,0.1-0.3,0.2
		l-0.4,0.8c-0.1,0.2-0.4,0.4-0.6,0.4h-1c-0.4,0-0.7-0.3-0.7-0.7v-1.1c0-0.2,0.1-0.4,0.2-0.5l0.9-0.9c0.2-0.2,0.3-0.5,0.3-0.8
		c0-0.1,0.1-0.3,0.2-0.3l1.7-0.6c0.1,0,0.1-0.1,0.2-0.1l1.2-1.2c0.2-0.2,0.2-0.5,0-0.7c-0.1-0.1-0.2-0.1-0.3-0.1h-0.9l-0.7,0.7v0.3
		c0,0.2-0.2,0.3-0.3,0.3h-0.7c-0.2,0-0.3-0.2-0.3-0.3V8.6c0-0.1,0.1-0.2,0.1-0.3L19,5.8c-1-0.3-2-0.4-3-0.4
		C10.1,5.3,5.3,10.1,5.3,16S10.1,26.7,16,26.7c0.5,0,0.9,0,1.4-0.1v-2.3c0-0.4-0.3-0.7-0.7-0.7h-0.9c-0.5,0-1.1-0.2-1.5-0.5l-1-0.7
		c-0.5-0.4-0.8-0.9-0.8-1.6v-1c0-0.7,0.4-1.3,1-1.7l1.8-1.1c0.3-0.2,0.7-0.3,1-0.3h1.3c0.5,0,0.9,0.2,1.3,0.5l1.9,1.6h0.8
		c0.4,0,0.7,0.1,1,0.4l0.7,0.7l0,0c0.6,0.5,0.9,1.2,0.9,2v0.8C25.2,21.6,25.9,20.2,26.3,18.8z M13.4,11.7c-0.1,0.1-0.2,0.1-0.3,0.1
		h-0.7c-0.3,0-0.5-0.2-0.5-0.5c0-0.1,0.1-0.3,0.1-0.3l1.1-1.1c0.2-0.2,0.5-0.2,0.7,0c0.1,0.1,0.1,0.2,0.1,0.3V11
		c0,0.1-0.1,0.3-0.1,0.3L13.4,11.7z"/>
	<path class="st2" d="M13.4,11.7l0.4-0.4c0.1-0.1,0.1-0.2,0.1-0.3v-0.7c0-0.3-0.2-0.5-0.5-0.5c-0.1,0-0.3,0.1-0.3,0.1L12,11.1
		c-0.2,0.2-0.2,0.5,0,0.7c0.1,0.1,0.2,0.1,0.3,0.1H13C13.2,11.9,13.3,11.8,13.4,11.7z M23.3,19.9L23.3,19.9l-0.7-0.7
		c-0.3-0.3-0.6-0.4-1-0.4h-0.8L19,17.2c-0.4-0.3-0.8-0.5-1.3-0.5h-1.3c-0.4,0-0.7,0.1-1,0.3l-1.8,1.1c-0.6,0.4-1,1-1,1.7v1
		c0,0.6,0.3,1.2,0.8,1.6l1,0.7c0.4,0.3,1.1,0.5,1.5,0.5h0.9c0.4,0,0.7,0.3,0.7,0.7v2.3c2.7-0.4,5.2-1.7,6.9-3.8v-0.8
		C24.3,21.1,23.9,20.4,23.3,19.9z M19,5.8l-3.5,2.6c-0.1,0.1-0.1,0.2-0.1,0.3v0.9c0,0.2,0.2,0.3,0.3,0.3h0.7c0.2,0,0.3-0.2,0.3-0.3
		V9.1l0.7-0.7h0.9c0.3,0,0.5,0.2,0.5,0.5c0,0.1-0.1,0.3-0.1,0.3l-1.2,1.2c-0.1,0.1-0.1,0.1-0.2,0.1l-1.7,0.6c-0.1,0-0.2,0.2-0.2,0.3
		c0,0.3-0.1,0.6-0.3,0.8l-0.9,0.9c-0.1,0.1-0.2,0.3-0.2,0.5v1.1c0,0.4,0.3,0.7,0.7,0.7h1c0.3,0,0.5-0.1,0.6-0.4l0.4-0.8
		c0.1-0.1,0.2-0.2,0.3-0.2H17c0.2,0,0.3,0.2,0.3,0.3s0.2,0.3,0.3,0.3h0.7c0.2,0,0.3-0.2,0.3-0.3v-0.1c0-0.1,0.1-0.3,0.2-0.3l1.4-0.5
		c0.3-0.1,0.5-0.4,0.5-0.7v-0.2c0-0.4,0.3-0.7,0.7-0.7h1.6c0.3,0,0.5,0.2,0.5,0.5v0.4c0,0.3-0.2,0.5-0.5,0.5h-1.4
		c-0.1,0-0.3,0.1-0.3,0.1L21,13.8c-0.2,0.2-0.2,0.5,0,0.7c0.1,0.1,0.2,0.1,0.3,0.1H22c0.1,0,0.3,0.1,0.3,0.1l0.4,0.4
		c0.1,0.1,0.1,0.2,0.1,0.3v0.4l-0.5,0.5c-0.2,0.2-0.2,0.5,0,0.7l1.4,1.4c0.1,0.1,0.3,0.2,0.5,0.2h2.1c0.2-0.9,0.4-1.8,0.4-2.8
		C26.7,11.1,23.4,7.1,19,5.8z"/>
</g>
</svg>
